<?xml version="1.0" standalone="no"?>
<!DOCTYPE svg PUBLIC "-//W3C//DTD SVG 20010904//EN"
 "http://www.w3.org/TR/2001/REC-SVG-20010904/DTD/svg10.dtd">
<svg version="1.0" xmlns="http://www.w3.org/2000/svg"
 width="782.000000pt" height="800.000000pt" viewBox="0 0 782.000000 800.000000"
 preserveAspectRatio="xMidYMid meet">

<g transform="translate(0.000000,800.000000) scale(0.100000,-0.100000)"
fill="#000000" stroke="none">
<path d="M3245 7548 c-145 -11 -297 -65 -430 -152 -219 -143 -366 -345 -430
-592 -91 -351 6 -722 255 -972 151 -153 331 -248 545 -287 50 -9 96 -22 103
-29 16 -15 104 -402 99 -436 l-3 -26 96 27 c52 15 128 33 167 39 63 10 72 14
64 28 -12 24 -81 339 -81 372 0 31 23 50 85 70 71 22 205 98 288 164 125 97
197 190 277 359 80 167 94 233 94 427 0 179 -7 220 -64 368 -115 299 -368 528
-676 613 -90 25 -267 37 -389 27z m195 -236 c47 -23 83 -93 75 -142 -15 -83
-87 -138 -166 -127 -139 18 -184 188 -70 264 41 28 110 30 161 5z m96 -308
c15 -11 37 -33 48 -48 20 -26 21 -38 18 -249 -4 -238 -6 -247 -58 -267 -26
-10 -26 -10 -59 -370 -14 -157 -28 -291 -30 -298 -4 -9 -28 -12 -92 -10 l-88
3 -32 315 c-17 173 -32 323 -32 333 -1 10 -11 21 -23 26 -54 21 -56 29 -60
273 l-3 227 30 31 c50 54 75 60 222 58 115 -3 135 -6 159 -24z"/>
<path d="M4924 6540 c-23 -5 -75 -22 -116 -38 -177 -68 -335 -214 -418 -386
-59 -124 -80 -213 -80 -348 1 -199 51 -350 167 -499 23 -30 43 -62 43 -71 0
-17 -55 -93 -109 -152 -20 -21 -31 -40 -25 -42 28 -11 142 -84 204 -131 38
-29 70 -49 70 -43 0 13 116 161 138 176 13 9 38 8 107 -7 401 -84 762 101 915
467 49 117 63 201 56 329 -17 344 -213 607 -539 722 -63 22 -92 26 -222 29
-82 2 -168 -1 -191 -6z m247 -159 c31 -31 39 -46 39 -75 0 -76 -49 -126 -123
-126 -36 0 -49 6 -76 34 -44 46 -51 98 -19 146 28 41 61 60 107 60 26 0 42 -9
72 -39z m44 -247 c64 -30 70 -49 73 -241 4 -170 3 -173 -20 -196 -13 -13 -29
-26 -36 -28 -7 -3 -20 -98 -37 -266 -14 -145 -25 -267 -25 -273 0 -6 -31 -10
-74 -10 l-74 0 -5 33 c-3 17 -16 138 -28 267 -17 185 -25 238 -38 248 -54 42
-51 30 -51 221 0 168 1 180 22 206 12 15 35 33 52 41 45 19 199 18 241 -2z"/>
<path d="M1628 6170 c-66 -11 -151 -45 -234 -94 -242 -143 -386 -397 -386
-681 0 -142 19 -223 84 -355 45 -92 64 -117 147 -201 82 -82 110 -103 191
-142 127 -63 226 -87 356 -87 120 0 211 17 318 60 42 16 85 30 96 30 17 0 346
-259 432 -341 21 -20 38 -31 38 -25 0 20 68 155 114 225 42 66 43 68 23 80
-27 18 -332 268 -347 285 -9 11 -5 26 14 65 83 163 112 292 103 449 -8 127
-26 195 -88 320 -43 89 -63 116 -137 190 -96 96 -192 157 -314 199 -62 21 -95
26 -213 28 -77 2 -166 0 -197 -5z m241 -160 c35 -36 48 -87 31 -121 -34 -66
-84 -89 -145 -69 -49 16 -75 53 -75 107 0 38 5 50 34 79 29 29 41 34 79 34 37
0 51 -5 76 -30z m68 -256 c43 -32 52 -72 52 -247 1 -152 0 -159 -22 -181 -13
-13 -28 -25 -35 -27 -7 -3 -21 -100 -39 -276 l-27 -273 -72 0 c-61 0 -73 3
-78 18 -2 9 -14 130 -27 267 -20 227 -24 252 -43 267 -12 10 -27 23 -33 28
-10 8 -13 57 -13 183 0 155 2 175 20 205 31 51 69 63 187 60 85 -3 106 -6 130
-24z"/>
<path d="M6597 5824 c-321 -58 -587 -255 -728 -539 -58 -117 -84 -203 -104
-339 -8 -54 -18 -103 -24 -109 -5 -5 -211 -52 -456 -103 -246 -51 -449 -95
-452 -97 -2 -3 11 -26 29 -53 18 -27 56 -94 83 -149 49 -98 50 -100 75 -89 14
7 189 47 389 89 258 55 369 75 380 68 9 -5 39 -54 66 -109 63 -125 101 -179
187 -270 114 -119 267 -214 438 -269 75 -25 105 -28 256 -33 187 -5 261 5 391
54 185 70 315 164 439 317 163 203 241 471 214 735 -19 178 -70 318 -173 474
-213 323 -619 493 -1010 422z m252 -232 c39 -28 71 -81 71 -116 0 -43 -30 -96
-71 -124 -28 -20 -43 -23 -87 -20 -45 4 -59 10 -89 41 -31 30 -37 44 -41 89
-3 44 0 59 20 87 48 70 136 89 197 43z m80 -310 c72 -36 76 -48 79 -288 l3
-214 -28 -28 c-15 -16 -34 -31 -41 -33 -8 -3 -21 -96 -42 -309 -17 -168 -33
-320 -36 -337 l-5 -33 -89 0 c-50 0 -90 1 -90 3 0 2 -13 151 -30 330 -16 180
-30 332 -30 337 0 6 -6 10 -14 10 -8 0 -26 10 -40 23 l-26 22 -1 216 c-2 243
1 258 70 298 31 18 53 21 161 21 100 0 132 -4 159 -18z"/>
<path d="M810 4575 c-149 -42 -350 -154 -453 -253 -76 -73 -163 -195 -211
-295 -118 -246 -134 -512 -47 -773 48 -143 114 -254 218 -364 133 -141 274
-227 469 -287 83 -25 102 -27 269 -27 211 0 273 13 439 92 275 133 448 339
539 644 32 105 37 114 68 130 37 18 390 95 480 105 l57 6 -9 31 c-17 59 -39
201 -39 254 0 47 -2 52 -17 43 -19 -9 -378 -87 -453 -97 -55 -7 -58 -5 -95
101 -59 170 -138 300 -254 416 -119 119 -238 191 -414 251 -90 31 -97 32 -292
35 -155 2 -212 -1 -255 -12z m326 -236 c29 -17 39 -34 58 -93 11 -33 -13 -93
-49 -125 -29 -25 -44 -31 -83 -31 -59 0 -90 16 -119 59 -26 39 -30 98 -9 139
40 78 123 99 202 51z m82 -302 c67 -36 72 -57 72 -295 0 -118 -4 -221 -10
-231 -5 -10 -23 -24 -40 -31 -16 -7 -30 -13 -30 -14 0 0 -13 -147 -30 -326
-17 -179 -30 -328 -30 -332 0 -5 -40 -8 -90 -8 -85 0 -90 1 -94 23 -3 12 -17
144 -31 292 -35 365 -33 355 -60 365 -51 19 -55 39 -55 255 0 175 3 205 19
242 32 68 74 83 231 80 87 -2 123 -7 148 -20z"/>
<path d="M5066 3767 c-2 -12 -9 -53 -15 -92 -6 -38 -23 -109 -38 -158 -14 -48
-24 -88 -22 -90 34 -25 184 -144 213 -170 l40 -34 -14 -101 c-28 -215 -1 -377
91 -537 87 -152 188 -247 344 -321 128 -60 217 -77 373 -72 110 4 140 9 224
38 195 65 358 209 448 394 70 143 83 209 77 381 -4 115 -9 152 -29 210 -67
187 -167 316 -327 420 -111 72 -203 104 -333 116 -144 14 -229 6 -342 -32
-108 -36 -166 -68 -265 -148 -55 -44 -79 -57 -90 -51 -19 10 -241 188 -293
235 -36 32 -38 33 -42 12z m1002 -167 c92 -56 49 -210 -58 -210 -36 0 -90 31
-105 61 -55 106 60 211 163 149z m76 -264 c47 -30 56 -69 56 -245 0 -88 -3
-167 -6 -176 -4 -8 -18 -22 -33 -29 l-27 -14 -22 -239 c-13 -131 -26 -253 -29
-270 l-5 -33 -73 0 -72 0 -6 53 c-3 28 -16 152 -28 275 -16 157 -27 222 -35
222 -7 0 -22 12 -33 26 -19 25 -21 40 -20 183 0 191 8 218 69 249 40 21 56 23
141 20 71 -3 103 -8 123 -22z"/>
<path d="M2810 3090 c-81 -109 -204 -259 -215 -264 -7 -2 -41 5 -76 17 -54 18
-88 21 -219 22 -174 0 -225 -9 -340 -62 -209 -95 -382 -306 -436 -529 -23 -95
-23 -286 0 -379 41 -161 151 -334 273 -428 149 -114 268 -157 463 -164 118 -5
146 -3 220 16 279 72 485 271 565 546 22 74 27 112 27 210 2 184 -38 316 -140
467 -29 42 -52 86 -52 96 0 17 168 238 194 254 6 4 8 9 6 11 -58 43 -135 116
-180 167 l-56 66 -34 -46z m-470 -365 c42 -22 70 -63 70 -102 0 -74 -52 -123
-131 -123 -33 0 -47 6 -75 34 -29 29 -34 41 -34 81 0 42 5 52 39 86 43 43 80
50 131 24z m64 -269 c18 -7 42 -26 54 -41 21 -26 22 -38 22 -212 l0 -184 -33
-19 -34 -20 -22 -262 c-13 -145 -25 -266 -28 -270 -2 -5 -38 -8 -79 -8 l-74 0
0 28 c-1 94 -49 517 -58 520 -7 2 -22 12 -34 22 -22 17 -23 26 -26 176 -4 193
6 231 71 263 51 25 188 29 241 7z"/>
<path d="M4330 2756 c-30 -16 -169 -63 -228 -77 -35 -8 -42 -13 -37 -27 4 -9
20 -75 36 -147 32 -150 36 -137 -66 -210 -137 -98 -288 -289 -346 -439 -60
-156 -72 -217 -73 -386 -1 -190 19 -281 99 -445 130 -269 370 -465 660 -541
87 -23 119 -27 250 -27 129 1 164 4 250 27 277 72 506 249 643 496 116 209
151 509 86 756 -54 207 -199 416 -384 555 -70 52 -234 131 -330 160 -61 18
-108 22 -260 26 -102 3 -190 9 -196 14 -6 5 -22 70 -35 144 -13 74 -28 135
-34 135 -5 -1 -21 -7 -35 -14z m360 -521 c66 -34 92 -110 62 -178 -61 -139
-262 -100 -262 51 0 24 7 56 15 73 32 61 121 87 185 54z m90 -311 c72 -42 75
-52 78 -282 2 -113 1 -216 -3 -229 -3 -14 -20 -30 -39 -40 l-34 -16 -12 -126
c-7 -69 -22 -220 -34 -336 l-21 -210 -90 0 -90 0 -7 55 c-3 30 -16 161 -27
290 -31 346 -28 326 -62 340 -16 7 -34 21 -39 31 -6 10 -10 111 -10 226 0 189
2 211 20 240 40 66 92 83 236 79 78 -2 109 -7 134 -22z"/>
</g>
</svg>
