<?xml version="1.0" standalone="no"?>
<!DOCTYPE svg PUBLIC "-//W3C//DTD SVG 20010904//EN"
 "http://www.w3.org/TR/2001/REC-SVG-20010904/DTD/svg10.dtd">
<svg version="1.0" xmlns="http://www.w3.org/2000/svg"
 width="360.000000pt" height="360.000000pt" viewBox="0 0 360.000000 360.000000"
 preserveAspectRatio="xMidYMid meet">

<g transform="translate(0.000000,360.000000) scale(0.100000,-0.100000)"
fill="#000000" stroke="none">
<path d="M493 3584 c-232 -51 -401 -210 -471 -442 -16 -52 -17 -157 -20 -1317
-3 -1409 -6 -1341 68 -1492 46 -94 119 -178 199 -232 66 -43 95 -57 176 -82
57 -18 121 -19 1358 -19 1444 0 1340 -5 1482 68 93 48 199 154 247 247 73 142
68 38 68 1482 0 1442 5 1332 -66 1478 -41 84 -168 210 -254 251 -154 75 -29
69 -1450 71 -1051 1 -1286 -1 -1337 -13z m1447 -1130 c99 -31 158 -110 171
-229 4 -38 13 -89 20 -113 16 -52 2 -117 -39 -177 -15 -22 -40 -66 -55 -97
-68 -140 -209 -195 -335 -132 -61 30 -94 67 -133 148 -16 32 -35 66 -43 75
-40 46 -59 123 -44 179 5 20 13 69 18 108 13 110 59 182 142 225 76 39 200 44
298 13z m-729 -209 c54 -35 74 -73 90 -163 18 -110 15 -145 -17 -199 -16 -27
-37 -65 -47 -86 -43 -84 -131 -125 -219 -102 -58 15 -96 48 -134 119 -74 137
-75 141 -70 171 3 17 10 61 16 99 11 80 38 128 91 163 72 47 217 47 290 -2z
m1454 17 c70 -34 103 -83 117 -177 20 -129 20 -139 0 -175 -11 -19 -31 -57
-46 -85 -53 -97 -108 -137 -187 -137 -67 0 -130 38 -165 100 -15 26 -40 68
-57 95 -31 50 -32 58 -12 212 8 65 45 127 92 155 65 38 193 45 258 12z m-1006
-586 c104 -71 212 -65 322 16 l25 19 160 -89 c139 -77 163 -94 192 -136 39
-58 61 -130 64 -211 l3 -59 -64 -23 c-271 -98 -803 -100 -1095 -5 l-81 27 3
60 c3 81 25 153 64 211 29 42 52 58 193 136 88 48 160 88 161 88 1 0 25 -15
53 -34z m-740 -6 c93 -63 185 -65 281 -6 l59 37 41 -21 c22 -11 40 -22 40 -25
0 -2 -24 -20 -53 -38 -94 -60 -145 -144 -168 -273 l-12 -67 -146 6 c-108 5
-170 13 -239 31 -122 32 -126 36 -118 109 8 79 36 138 81 173 40 31 163 101
180 103 6 0 30 -13 54 -29z m1494 -7 c56 -35 66 -38 137 -38 72 0 80 2 133 38
l57 37 68 -34 c147 -75 192 -131 195 -248 2 -58 0 -63 -24 -75 -71 -35 -239
-63 -380 -63 l-97 0 -10 58 c-24 135 -78 223 -172 281 -28 17 -50 33 -50 36 0
4 69 43 78 45 2 0 31 -17 65 -37z"/>
<path d="M1984 1476 c-3 -8 -4 -23 -2 -33 3 -16 16 -18 98 -21 79 -2 97 0 107
14 9 12 9 22 2 35 -8 17 -22 19 -105 19 -73 0 -96 -3 -100 -14z"/>
</g>
</svg>
